<svg xmlns="http://www.w3.org/2000/svg" viewBox="0 0 1600 900">
  <defs>
    <linearGradient id="bg" x1="0" x2="1" y1="0" y2="1">
      <stop offset="0%" stop-color="#050505"/>
      <stop offset="45%" stop-color="#1a0b0d"/>
      <stop offset="100%" stop-color="#0b0b0b"/>
    </linearGradient>
    <radialGradient id="glow" cx="50%" cy="30%" r="70%">
      <stop offset="0%" stop-color="#ffb100" stop-opacity="0.65"/>
      <stop offset="45%" stop-color="#ff2a2a" stop-opacity="0.25"/>
      <stop offset="100%" stop-color="#000000" stop-opacity="0"/>
    </radialGradient>
  </defs>
  <rect width="1600" height="900" fill="url(#bg)"/>
  <rect width="1600" height="900" fill="url(#glow)"/>
  <g opacity="0.17" stroke="#ffffff">
    <path d="M0 620 H1600" stroke-width="6"/>
    <path d="M0 670 H1600" stroke-width="6"/>
    <path d="M0 720 H1600" stroke-width="6"/>
  </g>
  <g fill="#ffffff" opacity="0.9">
    <circle cx="520" cy="280" r="46"/>
    <path d="M472 350q46-38 94 0l34 108-62 28-22-78-56 164h-62l72-188-56-42z"/>
    <rect x="430" y="348" width="60" height="24" rx="12"/>
    <rect x="560" y="352" width="58" height="28" rx="14"/>
    <path d="M610 374l170 44q36 9 20 42-9 18-34 18H676z"/>
  </g>
  <g fill="#d8d8d8" opacity="0.78">
    <circle cx="940" cy="290" r="44"/>
    <path d="M892 352q50-42 96 0l36 118-64 22-18-74-32 110h-56l26-130-30-46z"/>
    <rect x="1028" y="364" width="54" height="26" rx="13"/>
    <path d="M920 392l-126 110q-20 18-45 2-22-16-8-38l132-138z"/>
  </g>
  <text x="80" y="120" font-size="66" fill="#ffffff" font-family="Arial, Helvetica, sans-serif" font-weight="700">RAIGAD MIX BOXING ASSOCIATION</text>
  <text x="80" y="184" font-size="28" fill="#ffd36a" font-family="Arial, Helvetica, sans-serif" letter-spacing="4">STRENGTH • DISCIPLINE • UNITY • CHAMPIONSHIP</text>
</svg>